<?xml version="1.0" encoding="UTF-8" standalone="no"?><svg xmlns="http://www.w3.org/2000/svg" xmlns:xlink="http://www.w3.org/1999/xlink">
    <symbol viewBox="0 0 40 20" id="icon-arrow-down">
        <path d="M37.3171876,0.448610851 L19.7792975,15.8415785 L2.61992255,0.448610851 C1.86289022,-0.140190155 1.1479168,-0.0981334022 0.475000133,0.574783265 C-0.197916533,1.4159291 -0.15585978,2.13090252 0.601172547,2.71970352 L18.896095,18.9958759 C19.1484376,19.2482208 19.484896,19.3743932 19.90547,19.3743932 C20.1578126,19.3743932 20.494271,19.2482208 20.914845,18.9958759 L39.3359376,2.71970352 C40.1770835,2.04678686 40.2191402,1.37387019 39.46211,0.700953525 C38.8733069,-0.140190155 38.1583335,-0.224305815 37.3171876,0.448610851 L37.3171876,0.448610851 Z" fill="currentColor"></path>
    </symbol>
    <symbol viewBox="0 0 40 40" id="icon-play">
        <path d="M7.59713043,0.0782425519 C7.19904348,0.186578393 7,0.511585916 7,0.83659344 L7,39.1874812 C7,39.5124887 7.2653913,39.8374962 7.59713043,39.9458321 C7.72982608,40 7.86252173,40 7.99521738,40 C8.26060868,40 8.52599998,39.8916642 8.72504345,39.7833283 L32.2121735,20.6078844 C32.6102605,20.2828769 32.6102605,19.7953656 32.2121735,19.4703581 L8.65869563,0.240746314 C8.39330433,0.0240746314 7.92886955,-0.0842612098 7.59713043,0.0782425519 Z" fill="currentColor"></path>
    </symbol>
    <symbol viewBox="0 0 23 40" id="icon-pause">
        <path d="M0.8,0.373333333 C0.373333333,0.373333333 0,0.746666667 0,1.17333333 L0,38.9333333 C0,39.36 0.373333333,39.7333333 0.8,39.7333333 L7.84,39.7333333 C8.26666667,39.7333333 8.64,39.36 8.64,38.9333333 L8.64,1.17333333 C8.64,0.693333333 8.26666667,0.373333333 7.84,0.373333333 L0.8,0.373333333 Z" fill="currentColor"></path>
        <path d="M21.4933333,0.373333333 L14.4533333,0.373333333 C14.0266667,0.373333333 13.6533333,0.746666667 13.6533333,1.17333333 L13.6533333,38.9333333 C13.6533333,39.36 14.0266667,39.7333333 14.4533333,39.7333333 L21.4933333,39.7333333 C21.92,39.7333333 22.2933333,39.36 22.2933333,38.9333333 L22.2933333,1.17333333 C22.2933333,0.693333333 21.92,0.373333333 21.4933333,0.373333333 L21.4933333,0.373333333 Z" fill="currentColor"></path>
    </symbol>
    <symbol viewBox="0 0 40 40" id="icon-stop">
        <path d="M1.04347826,0 C0.486956522,0 0,0.486956522 0,1.04347826 L0,38.9565217 C0,39.5130435 0.486956522,40 1.04347826,40 L38.9565217,40 C39.5130435,40 40,39.5130435 40,38.9565217 L40,1.04347826 C40,0.486956522 39.5130435,0 38.9565217,0 L1.04347826,0 Z" fill="currentColor"></path>
    </symbol>
    <symbol viewBox="0 0 40 40" id="icon-mute">
        <path d="M3.31623932,28.7521368 L5.88034188,28.7521368 C6.46153846,28.7521368 6.90598291,28.3076923 6.90598291,27.7264957 C6.90598291,27.1452991 6.46153846,26.7008547 5.88034188,26.7008547 L3.31623932,26.7008547 C2.63247863,26.7008547 2.08547009,26.1538462 2.08547009,25.4700855 L2.08547009,15.7606838 C2.08547009,15.0769231 2.63247863,14.5299145 3.31623932,14.5299145 L8.92307692,14.5299145 C9.12820513,14.5299145 9.33333333,14.4615385 9.5042735,14.3589744 L25.5384615,3.17948718 L25.5384615,7.35042735 C25.5384615,7.93162393 25.982906,8.37606838 26.5641026,8.37606838 C27.1452991,8.37606838 27.5897436,7.93162393 27.5897436,7.35042735 L27.5897436,1.23076923 C27.5897436,0.854700855 27.3846154,0.512820513 27.042735,0.307692308 C26.7008547,0.136752137 26.2905983,0.170940171 25.982906,0.376068376 L8.61538462,12.4786325 L3.31623932,12.4786325 C1.5042735,12.4786325 0.0341880342,13.9487179 0.0341880342,15.7606838 L0.0341880342,25.5042735 C0.0683760684,27.2820513 1.53846154,28.7521368 3.31623932,28.7521368 L3.31623932,28.7521368 Z" fill="currentColor"></path>
        <path d="M26.1196581,39.7948718 C26.2564103,39.8632479 26.3931624,39.8974359 26.5641026,39.8974359 C26.7692308,39.8974359 26.9401709,39.8290598 27.1111111,39.7264957 C27.4188034,39.5213675 27.5897436,39.2136752 27.5897436,38.8717949 L27.5897436,18.1880342 C27.5897436,17.6068376 27.1452991,17.1623932 26.5641026,17.1623932 C25.982906,17.1623932 25.5384615,17.6068376 25.5384615,18.1880342 L25.5384615,37.1282051 C22.6666667,35.5213675 16.6153846,31.965812 14.0854701,30.4273504 C13.6068376,30.1538462 12.957265,30.2905983 12.6837607,30.7692308 C12.4102564,31.2478632 12.5470085,31.8974359 13.025641,32.1709402 C13.4700855,32.4786325 24.5470085,39.0769231 26.1196581,39.7948718 L26.1196581,39.7948718 Z" fill="currentColor"></path>
        <path d="M2.15384615,35.5555556 C1.74358974,35.965812 1.74358974,36.6153846 2.15384615,36.991453 C2.35897436,37.1965812 2.63247863,37.2991453 2.87179487,37.2991453 C3.11111111,37.2991453 3.38461538,37.1965812 3.58974359,36.991453 L35.042735,5.53846154 C35.4529915,5.12820513 35.4529915,4.47863248 35.042735,4.1025641 C34.6324786,3.69230769 33.982906,3.69230769 33.6068376,4.1025641 L2.15384615,35.5555556 L2.15384615,35.5555556 Z" fill="currentColor"></path>
    </symbol>
    <symbol viewBox="0 0 40 40" id="icon-volume-high">
        <path d="M8.63333333,28 L25.5666667,39.8 C25.7333333,39.9333333 25.9333333,39.9666667 26.1333333,39.9666667 C26.3,39.9666667 26.4666667,39.9333333 26.6,39.8666667 C26.9333333,39.7 27.1333333,39.3666667 27.1333333,38.9666667 L27.1333333,1.16666667 C27.1333333,0.8 26.9333333,0.466666667 26.6,0.266666667 C26.2666667,0.1 25.8666667,0.133333333 25.5666667,0.333333333 L8.63333333,12.1333333 L3.5,12.1333333 C1.73333333,12.1333333 0.3,13.5666667 0.3,15.3333333 L0.3,24.8333333 C0.3,26.6 1.73333333,28.0333333 3.5,28.0333333 L8.63333333,28.0333333 L8.63333333,28 Z M2.3,24.8333333 L2.3,15.3333333 C2.3,14.6666667 2.83333333,14.1333333 3.5,14.1333333 L8.96666667,14.1333333 C9.16666667,14.1333333 9.36666667,14.0666667 9.53333333,13.9666667 L25.1666667,3.06666667 L25.1666667,37.0666667 L9.5,26.2 C9.33333333,26.0666667 9.13333333,26 8.93333333,26 L3.5,26 C2.83333333,26 2.3,25.4666667 2.3,24.8333333 L2.3,24.8333333 Z" fill="currentColor"></path>
        <path d="M35.1,8.93333333 C34.6666667,8.6 34.0333333,8.66666667 33.7,9.1 C33.3666667,9.53333333 33.4333333,10.1666667 33.8666667,10.5 C36.9,12.9 38.6333333,16.4666667 38.6333333,20.3 C38.6333333,24.1 36.9333333,27.6666667 33.9333333,30.0666667 C33.5,30.4 33.4333333,31.0333333 33.7666667,31.4666667 C33.9666667,31.7 34.2666667,31.8333333 34.5333333,31.8333333 C34.7666667,31.8333333 34.9666667,31.7666667 35.1666667,31.6 C38.6333333,28.8333333 40.6333333,24.7 40.6333333,20.2666667 C40.6333333,15.8333333 38.6,11.7 35.1,8.93333333 L35.1,8.93333333 Z" fill="currentColor"></path>
        <path d="M29.6666667,25.4 C29.2,25.7 29.1,26.3333333 29.4,26.8 C29.6,27.0666667 29.9,27.2333333 30.2333333,27.2333333 C30.4333333,27.2333333 30.6333333,27.1666667 30.8,27.0666667 C33,25.5333333 34.3333333,23 34.3333333,20.3 C34.3333333,17.6333333 33.0333333,15.1333333 30.8666667,13.6 C30.4,13.2666667 29.8,13.4 29.4666667,13.8333333 C29.1333333,14.3 29.2666667,14.9 29.7,15.2333333 C31.3333333,16.4 32.3333333,18.3 32.3333333,20.3 C32.3666667,22.3333333 31.3666667,24.2333333 29.6666667,25.4 L29.6666667,25.4 Z" fill="currentColor"></path>
    </symbol>
    <symbol viewBox="0 0 40 40" id="icon-volume-zero">
        <path d="M8.63333333,28 L25.5666667,39.8 C25.7333333,39.9333333 25.9333333,39.9666667 26.1333333,39.9666667 C26.3,39.9666667 26.4666667,39.9333333 26.6,39.8666667 C26.9333333,39.7 27.1333333,39.3666667 27.1333333,38.9666667 L27.1333333,1.16666667 C27.1333333,0.8 26.9333333,0.466666667 26.6,0.266666667 C26.2666667,0.1 25.8666667,0.133333333 25.5666667,0.333333333 L8.63333333,12.1333333 L3.5,12.1333333 C1.73333333,12.1333333 0.3,13.5666667 0.3,15.3333333 L0.3,24.8333333 C0.3,26.6 1.73333333,28.0333333 3.5,28.0333333 L8.63333333,28.0333333 L8.63333333,28 Z M2.3,24.8333333 L2.3,15.3333333 C2.3,14.6666667 2.83333333,14.1333333 3.5,14.1333333 L8.96666667,14.1333333 C9.16666667,14.1333333 9.36666667,14.0666667 9.53333333,13.9666667 L25.1666667,3.06666667 L25.1666667,37.0666667 L9.5,26.2 C9.33333333,26.0666667 9.13333333,26 8.93333333,26 L3.5,26 C2.83333333,26 2.3,25.4666667 2.3,24.8333333 L2.3,24.8333333 Z" fill="currentColor"></path>
    </symbol>
    <symbol viewBox="0 0 40 40" id="icon-volume-low">
        <path d="M3.26666667,12.1333333 C1.5,12.1333333 0.0666666667,13.5666667 0.0666666667,15.3333333 L0.0666666667,24.8333333 C0.0666666667,26.6 1.5,28.0333333 3.26666667,28.0333333 L8.4,28.0333333 L25.3333333,39.8333333 C25.5,39.9666667 25.7,40 25.9,40 C26.0666667,40 26.2333333,39.9666667 26.3666667,39.9 C26.7,39.7333333 26.9,39.4 26.9,39 L26.9,1.16666667 C26.9,0.8 26.7,0.466666667 26.3666667,0.266666667 C26.0666667,0.1 25.6666667,0.133333333 25.3333333,0.333333333 L8.4,12.1333333 L3.26666667,12.1333333 L3.26666667,12.1333333 Z M9.3,13.9666667 L24.9333333,3.06666667 L24.9333333,37.0666667 L9.3,26.2 C9.13333333,26.0666667 8.93333333,26.0333333 8.73333333,26.0333333 L3.26666667,26.0333333 C2.6,26.0333333 2.06666667,25.5 2.06666667,24.8333333 L2.06666667,15.3333333 C2.06666667,14.6666667 2.6,14.1333333 3.26666667,14.1333333 L8.73333333,14.1333333 C8.93333333,14.1333333 9.13333333,14.1 9.3,13.9666667 L9.3,13.9666667 Z" fill="currentColor"></path>
        <path d="M30.6666667,13.6 C30.2,13.2666667 29.6,13.4 29.2666667,13.8333333 C28.9333333,14.3 29.0666667,14.9 29.5,15.2333333 C31.1333333,16.4 32.1333333,18.3 32.1333333,20.3 C32.1333333,22.3333333 31.1333333,24.2333333 29.4666667,25.4 C29,25.7 28.9,26.3333333 29.2,26.8 C29.4,27.0666667 29.7,27.2333333 30.0333333,27.2333333 C30.2333333,27.2333333 30.4333333,27.1666667 30.6,27.0666667 C32.8,25.5333333 34.1333333,23 34.1333333,20.3 C34.1333333,17.6333333 32.8333333,15.1333333 30.6666667,13.6 L30.6666667,13.6 Z" fill="currentColor"></path>
    </symbol>
</svg>
